# xmcd CD database file
#
# Track frame offsets:
#	150
#	12297
#	26316
#	41297
#	54403
#	61885
#	74578
#	86179
#	97479
#	111200
#	122749
#	133726
#	154115
#	167145
#	179855
#
# Disc length: 2561 seconds
#
# Revision: 0
# Processed by: cddbd v1.5.2PL0 Copyright (c) Steve Scherf et al.
# Submitted via: CDex 1.51
#
DISCID=d609ff0f
DTITLE=Ray Charles - Juke Box Hits cd1
DYEAR=2006
DGENRE=Blues
TTITLE0=C.C Rider
TTITLE1=Crying Time
TTITLE2=Hallelujah I Love Her So
TTITLE3=Baby Won't You Please Come Home
TTITLE4=Ray's Blues
TTITLE5=Can Anyone Ask for More
TTITLE6=Alexander's Ragtime Band
TTITLE7=If I Give You my Love
TTITLE8=I'm Going Down to the River
TTITLE9=How Long
TTITLE10=Sentimental Blues
TTITLE11=Girl I Used to Know
TTITLE12=Heartbreaker
TTITLE13=Don't put all your Dreams in one Basket
TTITLE14=I Will not let you Go
EXTD=YEAR: 2006
EXTT0=
EXTT1=
EXTT2=
EXTT3=
EXTT4=
EXTT5=
EXTT6=
EXTT7=
EXTT8=
EXTT9=
EXTT10=
EXTT11=
EXTT12=
EXTT13=
EXTT14=
PLAYORDER=
